# xmcd
#
# Track frame offsets:
#	150
#	12057
#	23856
#	32631
#	45456
#	60765
#	75615
#	88548
#	101319
#	112848
#	128616
#	139632
#	155292
#	166659
#	183669
#	194145
#	207834
#	219876
#	237318
#	254517
#	268908
#	285918
#	299499
#
# Disc length: 4138 seconds
#
# Revision: 2
# Processed by: cddbd v1.5.1PL2 Copyright (c) Steve Scherf et al.
# Submitted via: audiograbber 1.83.01
#
DISCID=2f102817
DTITLE=banda el limon - varios
DYEAR=1900
DGENRE=
TTITLE0=varios
TTITLE1=varios
TTITLE2=varios
TTITLE3=varioss
TTITLE4=did
TTITLE5=dere
TTITLE6=tht
TTITLE7=vgbvbg
TTITLE8=bvn
TTITLE9=hghg
TTITLE10=bhgghd
TTITLE11=dhhyj
TTITLE12=hgm
TTITLE13=hghydf
TTITLE14=jaime
TTITLE15=frvgwYIHA
TTITLE16=AGRdc
TTITLE17=ffgshg
TTITLE18=bnjh
TTITLE19=nfvjg
TTITLE20=rtft
TTITLE21=bbh
TTITLE22=bebe
EXTD=
EXTT0=
EXTT1=
EXTT2=
EXTT3=
EXTT4=
EXTT5=
EXTT6=
EXTT7=
EXTT8=
EXTT9=
EXTT10=
EXTT11=
EXTT12=
EXTT13=
EXTT14=
EXTT15=
EXTT16=
EXTT17=
EXTT18=
EXTT19=
EXTT20=
EXTT21=
EXTT22=
PLAYORDER=
